<svg width="190" height="40" viewBox="0 0 190 40" fill="none" xmlns="http://www.w3.org/2000/svg">
<path d="M151.922 19.818C152.781 20.3127 153.21 21.0593 153.21 22.058C153.21 22.8887 152.916 23.57 152.328 24.102C151.74 24.634 151.017 24.9 150.158 24.9H146V15.1H149.864C150.704 15.1 151.409 15.3613 151.978 15.884C152.557 16.3973 152.846 17.0553 152.846 17.858C152.846 18.67 152.538 19.3233 151.922 19.818ZM149.864 16.906H147.932V19.062H149.864C150.163 19.062 150.41 18.9593 150.606 18.754C150.811 18.5487 150.914 18.292 150.914 17.984C150.914 17.676 150.816 17.4193 150.62 17.214C150.424 17.0087 150.172 16.906 149.864 16.906ZM150.158 23.094C150.485 23.094 150.755 22.9867 150.97 22.772C151.185 22.548 151.292 22.268 151.292 21.932C151.292 21.6053 151.185 21.3347 150.97 21.12C150.755 20.896 150.485 20.784 150.158 20.784H147.932V23.094H150.158Z" fill="#161E2E"/>
<path d="M156.409 23.052H160.147V24.9H154.477V15.1H156.409V23.052Z" fill="#161E2E"/>
<path d="M168.889 23.626C167.899 24.606 166.695 25.096 165.277 25.096C163.858 25.096 162.654 24.606 161.665 23.626C160.685 22.6367 160.195 21.428 160.195 20C160.195 18.572 160.685 17.368 161.665 16.388C162.654 15.3987 163.858 14.904 165.277 14.904C166.695 14.904 167.899 15.3987 168.889 16.388C169.878 17.368 170.373 18.572 170.373 20C170.373 21.428 169.878 22.6367 168.889 23.626ZM163.023 22.31C163.629 22.9073 164.381 23.206 165.277 23.206C166.173 23.206 166.924 22.9073 167.531 22.31C168.137 21.7033 168.441 20.9333 168.441 20C168.441 19.0667 168.137 18.2967 167.531 17.69C166.924 17.0833 166.173 16.78 165.277 16.78C164.381 16.78 163.629 17.0833 163.023 17.69C162.416 18.2967 162.113 19.0667 162.113 20C162.113 20.9333 162.416 21.7033 163.023 22.31Z" fill="#161E2E"/>
<path d="M181.348 19.636V20.392C181.348 21.792 180.9 22.926 180.004 23.794C179.108 24.662 177.951 25.096 176.532 25.096C175.02 25.096 173.765 24.606 172.766 23.626C171.777 22.6367 171.282 21.4327 171.282 20.014C171.282 18.586 171.772 17.3773 172.752 16.388C173.742 15.3987 174.964 14.904 176.42 14.904C177.335 14.904 178.17 15.114 178.926 15.534C179.682 15.9447 180.27 16.4953 180.69 17.186L179.038 18.138C178.805 17.7367 178.45 17.41 177.974 17.158C177.508 16.906 176.985 16.78 176.406 16.78C175.473 16.78 174.703 17.088 174.096 17.704C173.499 18.3107 173.2 19.0807 173.2 20.014C173.2 20.938 173.504 21.7033 174.11 22.31C174.726 22.9073 175.538 23.206 176.546 23.206C177.293 23.206 177.909 23.0427 178.394 22.716C178.889 22.38 179.225 21.9227 179.402 21.344H176.434V19.636H181.348Z" fill="#161E2E"/>
<rect x="139" y="10" width="49.3485" height="20" rx="5" stroke="#161E2E" stroke-width="2"/>
<path d="M59.89 12.61C61.61 12.61 63 13.16 64.06 14.26C65.12 15.36 65.65 16.87 65.65 18.79V28H62.41V19.12C62.41 18 62.11 17.14 61.51 16.54C60.91 15.94 60.09 15.64 59.05 15.64C57.91 15.64 56.99 16 56.29 16.72C55.59 17.42 55.24 18.5 55.24 19.96V28H52V13H55.24V14.92C56.22 13.38 57.77 12.61 59.89 12.61Z" fill="#161E2E"/>
<path d="M77.6287 12.61C79.6887 12.61 81.4487 13.38 82.9087 14.92C84.3687 16.44 85.0987 18.3 85.0987 20.5C85.0987 22.72 84.3687 24.59 82.9087 26.11C81.4487 27.63 79.6887 28.39 77.6287 28.39C75.3487 28.39 73.5987 27.55 72.3787 25.87V34H69.1387V13H72.3787V15.16C73.5987 13.46 75.3487 12.61 77.6287 12.61ZM73.7287 23.95C74.6287 24.85 75.7587 25.3 77.1187 25.3C78.4787 25.3 79.6087 24.85 80.5087 23.95C81.4087 23.03 81.8587 21.88 81.8587 20.5C81.8587 19.12 81.4087 17.98 80.5087 17.08C79.6087 16.16 78.4787 15.7 77.1187 15.7C75.7587 15.7 74.6287 16.16 73.7287 17.08C72.8287 17.98 72.3787 19.12 72.3787 20.5C72.3787 21.88 72.8287 23.03 73.7287 23.95Z" fill="#161E2E"/>
<path d="M99.9152 13H103.155V28H99.9152V25.84C98.6952 27.54 96.9452 28.39 94.6652 28.39C92.6052 28.39 90.8452 27.63 89.3852 26.11C87.9252 24.57 87.1952 22.7 87.1952 20.5C87.1952 18.28 87.9252 16.41 89.3852 14.89C90.8452 13.37 92.6052 12.61 94.6652 12.61C96.9452 12.61 98.6952 13.45 99.9152 15.13V13ZM91.7852 23.95C92.6852 24.85 93.8152 25.3 95.1752 25.3C96.5352 25.3 97.6652 24.85 98.5652 23.95C99.4652 23.03 99.9152 21.88 99.9152 20.5C99.9152 19.12 99.4652 17.98 98.5652 17.08C97.6652 16.16 96.5352 15.7 95.1752 15.7C93.8152 15.7 92.6852 16.16 91.7852 17.08C90.8852 17.98 90.4352 19.12 90.4352 20.5C90.4352 21.88 90.8852 23.03 91.7852 23.95Z" fill="#161E2E"/>
<path d="M115.302 16.12H111.582V23.32C111.582 23.94 111.722 24.39 112.002 24.67C112.282 24.93 112.692 25.08 113.232 25.12C113.792 25.14 114.482 25.13 115.302 25.09V28C112.822 28.3 111.042 28.09 109.962 27.37C108.882 26.63 108.342 25.28 108.342 23.32V16.12H105.582V13H108.342V9.76L111.582 8.8V13H115.302V16.12Z" fill="#161E2E"/>
<path d="M126.13 12.61C127.85 12.61 129.24 13.16 130.3 14.26C131.36 15.36 131.89 16.87 131.89 18.79V28H128.65V19.12C128.65 18 128.35 17.14 127.75 16.54C127.15 15.94 126.33 15.64 125.29 15.64C124.15 15.64 123.23 16 122.53 16.72C121.83 17.42 121.48 18.5 121.48 19.96V28H118.24V7H121.48V14.92C122.46 13.38 124.01 12.61 126.13 12.61Z" fill="#161E2E"/>
<path d="M7.61288 39.8525C9.63159 39.8525 11.5676 39.0506 12.9951 37.6231C14.4225 36.1957 15.2244 34.2596 15.2244 32.2409C15.2244 30.1395 14.3796 28.3993 13.01 27.0138C11.2553 25.2364 9.45666 25.4198 8.23854 20.6257C8.13095 20.2046 7.89715 20 7.61288 20C7.32861 20 7.09349 20.2046 6.98589 20.6257C5.76778 25.4211 3.96916 25.2364 2.21439 27.0151C0.844841 28.4006 0 30.1408 0 32.2423C0.00070445 34.2609 0.803085 36.1966 2.2307 37.6237C3.65832 39.0508 5.59428 39.8525 7.61288 39.8525Z" fill="#FE4974"/>
<path d="M32.2991 1.16001e-07C30.2803 1.16001e-07 28.3443 0.801929 26.9169 2.22937C25.4894 3.65682 24.6875 5.59285 24.6875 7.61156C24.6875 9.71303 25.5323 11.4532 26.9019 12.8387C28.6567 14.616 30.4553 14.4327 31.6734 19.2268C31.781 19.6479 32.0148 19.8525 32.2991 19.8525C32.5833 19.8525 32.8184 19.6479 32.926 19.2268C34.1442 14.4274 35.9428 14.616 37.6975 12.8387C39.0671 11.4532 39.9106 9.71303 39.9106 7.61156C39.9108 6.61194 39.714 5.62209 39.3316 4.69853C38.9491 3.77498 38.3885 2.93582 37.6816 2.22898C36.9748 1.52215 36.1356 0.961494 35.2121 0.579039C34.2885 0.196585 33.2987 -0.000174382 32.2991 1.16001e-07Z" fill="#FE4974"/>
<path d="M20.6319 19.056C25.8825 24.3074 28.0025 24.5821 32.3212 24.6674C34.2772 24.7048 36.1105 25.3142 37.6025 26.8011C38.346 27.5025 38.9412 28.346 39.3528 29.2816C39.7645 30.2172 39.9843 31.2259 39.9992 32.248C40.0141 33.2701 39.8238 34.2848 39.4396 35.232C39.0553 36.1792 38.485 37.0397 37.7623 37.7625C37.0396 38.4853 36.1793 39.0557 35.2322 39.44C34.2851 39.8243 33.2706 40.0146 32.2486 39.9997C31.2267 39.9848 30.2181 39.765 29.2827 39.3532C28.3472 38.9415 27.5038 38.3462 26.8025 37.6027C25.3105 36.1104 24.7012 34.2755 24.6625 32.3206C24.5785 27.9999 24.3025 25.881 19.0532 20.6295C13.8039 15.3781 11.6825 15.1034 7.36385 15.018C5.40785 14.9807 3.57452 14.3713 2.08252 12.8844C0.718583 11.4383 -0.0281615 9.5175 0.000812709 7.52973C0.029787 5.54196 0.832198 3.64374 2.23771 2.23803C3.64322 0.832317 5.54115 0.0297913 7.52863 0.00081283C9.51611 -0.0281656 11.4366 0.718685 12.8825 2.08282C14.3745 3.57504 14.9839 5.41664 15.0225 7.36493C15.1065 11.6856 15.3825 13.8045 20.6319 19.056Z" fill="#FE4974"/>
</svg>
